<svg height="496pt" viewBox="-32 0 496 496" width="496pt" xmlns="http://www.w3.org/2000/svg"><path d="m8 8h416v480h-416zm0 0" fill="#d6680e"/><path d="m8 8h376v480h-376zm0 0" fill="#ee9710"/><path d="m392 48h-80c-4.414062 0-8-3.574219-8-8v-32c0-4.425781 3.585938-8 8-8h80c4.414062 0 8 3.574219 8 8v32c0 4.425781-3.585938 8-8 8zm-72-16h64v-16h-64zm0 0"/><path d="m344 200h48v32h-48zm0 0" fill="#795e24"/><path d="m344 200h24v32h-24zm0 0" fill="#795200"/><path d="m200 200h48v32h-48zm0 0" fill="#795e24"/><path d="m200 200h24v32h-24zm0 0" fill="#795200"/><path d="m120 200h48v32h-48zm0 0" fill="#795e24"/><path d="m120 200h24v32h-24zm0 0" fill="#795200"/><path d="m40 200h48v32h-48zm0 0" fill="#795e24"/><path d="m40 200h24v32h-24zm0 0" fill="#795200"/><path d="m56 264h320v192h-320zm0 0" fill="#ea9e22"/><path d="m56 264h296v192h-296zm0 0" fill="#fac14b"/><path d="m424 496h-416c-4.414062 0-8-3.574219-8-8v-480c0-4.425781 3.585938-8 8-8h416c4.414062 0 8 3.574219 8 8v480c0 4.425781-3.585938 8-8 8zm-408-16h400v-464h-400zm0 0"/><path d="m40 72h352v96h-352zm0 0" fill="#ea9e22"/><path d="m40 72h320v96h-320zm0 0" fill="#fac14b"/><path d="m392 176h-352c-4.414062 0-8-3.574219-8-8v-96c0-4.425781 3.585938-8 8-8h352c4.414062 0 8 3.574219 8 8v96c0 4.425781-3.585938 8-8 8zm-344-16h336v-80h-336zm0 0"/><path d="m328 144h-32c-4.414062 0-8-3.574219-8-8v-32c0-4.425781 3.585938-8 8-8h32c4.414062 0 8 3.574219 8 8v32c0 4.425781-3.585938 8-8 8zm-24-16h16v-16h-16zm0 0"/><path d="m352 128h16v16h-16zm0 0"/><path d="m376 464h-320c-4.414062 0-8-3.574219-8-8v-192c0-4.425781 3.585938-8 8-8h320c4.414062 0 8 3.574219 8 8v192c0 4.425781-3.585938 8-8 8zm-312-16h304v-176h-304zm0 0"/><path d="m176 264h16v192h-16zm0 0"/><path d="m240 264h16v192h-16zm0 0"/><path d="m112 264h16v192h-16zm0 0"/><path d="m304 264h16v192h-16zm0 0"/><path d="m56 304h320v16h-320zm0 0"/><path d="m56 400h256v16h-256zm0 0"/><path d="m56 352h320v16h-320zm0 0"/><path d="m392 240h-48c-4.414062 0-8-3.574219-8-8v-32c0-4.425781 3.585938-8 8-8h48c4.414062 0 8 3.574219 8 8v32c0 4.425781-3.585938 8-8 8zm-40-16h32v-16h-32zm0 0"/><path d="m248 240h-48c-4.414062 0-8-3.574219-8-8v-32c0-4.425781 3.585938-8 8-8h48c4.414062 0 8 3.574219 8 8v32c0 4.425781-3.585938 8-8 8zm-40-16h32v-16h-32zm0 0"/><path d="m168 240h-48c-4.414062 0-8-3.574219-8-8v-32c0-4.425781 3.585938-8 8-8h48c4.414062 0 8 3.574219 8 8v32c0 4.425781-3.585938 8-8 8zm-40-16h32v-16h-32zm0 0"/><path d="m88 240h-48c-4.414062 0-8-3.574219-8-8v-32c0-4.425781 3.585938-8 8-8h48c4.414062 0 8 3.574219 8 8v32c0 4.425781-3.585938 8-8 8zm-40-16h32v-16h-32zm0 0"/></svg>